<svg height="59" width="197" xmlns="http://www.w3.org/2000/svg" xmlns:xlink="http://www.w3.org/1999/xlink">
    <defs>
        <path
            d="M.391 5.788l14.412 5.743.573-.222c-.005-.011-.015-.021-.019-.036l-.002.002c-.059-.052-.096-.116-.082-.196.011-.093.076-.161.168-.207a.748.748 0 0 1 .494-.043c.098.026.172.07.222.124l.001.004c.003.015.002.032.003.049l.968-.377c-.006-.011-.015-.021-.017-.032h-.002c-.062-.052-.096-.116-.085-.197.013-.092.078-.16.171-.208a.753.753 0 0 1 .492-.043.45.45 0 0 1 .221.127l.002.003c.005.013.002.029.005.046l.965-.376c-.004-.011-.014-.021-.017-.031l-.002.001c-.059-.052-.095-.117-.083-.198.012-.092.078-.16.17-.205a.74.74 0 0 1 .493-.045.445.445 0 0 1 .221.126l.001.003c.005.014.001.03.004.045l.965-.376c-.003-.01-.011-.02-.017-.03l-.001.001c-.06-.051-.094-.116-.083-.197.012-.093.079-.16.169-.207a.749.749 0 0 1 .494-.043.444.444 0 0 1 .221.124l.001.004c.005.014.001.029.004.043l.965-.374c-.004-.01-.012-.02-.016-.03h-.001a.216.216 0 0 1-.084-.196c.011-.092.08-.16.171-.206a.723.723 0 0 1 .494-.043c.097.026.17.07.219.124l.003.004c.003.013 0 .027.003.043l.964-.376-.016-.028h-.002c-.058-.052-.092-.116-.082-.197.012-.092.08-.16.17-.207a.754.754 0 0 1 .494-.043.441.441 0 0 1 .221.129c.003.012.001.027.003.04l.965-.374c-.004-.011-.011-.017-.016-.026h-.001a.218.218 0 0 1-.082-.197c.01-.092.078-.163.169-.208a.754.754 0 0 1 .494-.042.485.485 0 0 1 .222.128c.002.013 0 .027.002.039l.964-.372c-.003-.01-.011-.019-.013-.028v.001a.219.219 0 0 1-.086-.197c.013-.092.08-.161.172-.206a.744.744 0 0 1 .494-.045.462.462 0 0 1 .22.128c.002.012.001.026.002.039l.489-.188v.001l.003-.001-14.12-5.77L.391 5.788z"
            id="a"/>
        <linearGradient id="b" x1="40.768%" x2="59.108%" y1="66.877%" y2="33.064%">
            <stop offset="0%" stop-color="#9E2064"/>
            <stop offset="12.43%" stop-color="#9E2064"/>
            <stop offset="93.42%" stop-color="#E9262A"/>
            <stop offset="100%" stop-color="#E9262A"/>
        </linearGradient>
        <path
            d="M1.813 17.883l1.758-.645v1.652l-1.758.644v-1.651zm0-2.83l1.758-.645v1.65l-1.758.646v-1.651zm0-2.829l1.758-.645v1.649l-1.758.646v-1.65zm0-2.829l1.758-.644V10.4l-1.758.645v-1.65zm0-2.828l1.758-.647v1.651l-1.758.646v-1.65zM12.874.258L1.964 4.363C.986 4.732.345 5.622.349 6.611l.042 15.178 14.414-5.507V1.485c0-.76-.663-1.324-1.405-1.324-.174.001-.35.031-.526.097z"
            id="d"/>
        <linearGradient id="e" x1="30.432%" x2="68.728%" y1="82.815%" y2="18.345%">
            <stop offset="0%" stop-color="#9E2064"/>
            <stop offset="12.43%" stop-color="#9E2064"/>
            <stop offset="93.42%" stop-color="#E9262A"/>
            <stop offset="100%" stop-color="#E9262A"/>
        </linearGradient>
        <path
            d="M14.433.241a.424.424 0 0 1-.042.287c-.165.311-.517.328-.688.13a.346.346 0 0 1-.058-.111l-.965.375a.423.423 0 0 1-.044.284c-.162.313-.514.329-.687.132-.029-.032-.043-.071-.057-.109l-.966.374a.42.42 0 0 1-.045.284c-.162.312-.514.328-.687.131a.337.337 0 0 1-.056-.108l-.965.375a.43.43 0 0 1-.046.281c-.163.313-.514.327-.687.131a.305.305 0 0 1-.056-.107l-.966.375a.429.429 0 0 1-.046.281c-.161.312-.513.328-.686.131-.028-.03-.04-.067-.056-.106l-.965.374a.452.452 0 0 1-.046.281c-.164.312-.515.328-.687.132a.323.323 0 0 1-.056-.107l-.965.377a.43.43 0 0 1-.047.277c-.163.313-.514.327-.685.131a.27.27 0 0 1-.056-.104l-.968.378a.425.425 0 0 1-.045.275c-.163.312-.514.329-.687.13-.027-.029-.04-.066-.054-.104l-.571.223-.002-.001-.002.001-.006 14.622c-.001.862.931 1.448 1.778 1.121l1.576-.604c.526-.202.881-.667.914-1.201.01-.184.033-.371.065-.563.399-2.257 2.206-4.087 4.032-4.087 1.23 0 2.156.826 2.512 2.052.125.432.623.665 1.064.497l1.103-.426c.656-.252 1.082-.847 1.082-1.509V.052l-.481.189z"
            id="g"/>
        <linearGradient id="h" x1="31.467%" x2="69.687%" y1="81.314%" y2="17.065%">
            <stop offset="0%" stop-color="#9E2064"/>
            <stop offset="12.43%" stop-color="#9E2064"/>
            <stop offset="93.42%" stop-color="#E9262A"/>
            <stop offset="100%" stop-color="#E9262A"/>
        </linearGradient>
        <path
            d="M.866 5.579l14.411 5.745.572-.223c-.006-.012-.015-.022-.018-.034l-.001.001c-.06-.053-.094-.119-.084-.197.012-.093.078-.16.17-.208a.732.732 0 0 1 .493-.044.452.452 0 0 1 .222.127c.005.017.003.035.005.049l.967-.375c-.005-.011-.015-.022-.019-.034h-.001c-.059-.051-.096-.116-.085-.196.013-.093.08-.162.173-.209a.74.74 0 0 1 .492-.042.437.437 0 0 1 .222.128c.003.014.001.03.003.047l.967-.375c-.006-.012-.014-.02-.017-.032h-.001c-.061-.051-.095-.117-.084-.198.013-.089.077-.16.17-.205a.732.732 0 0 1 .493-.043.45.45 0 0 1 .222.128c.005.015.001.031.004.047l.966-.376c-.004-.011-.014-.021-.016-.031l-.002.001c-.059-.052-.095-.118-.085-.197.013-.093.08-.161.172-.206a.74.74 0 0 1 .494-.045.462.462 0 0 1 .218.125l.003.002c.004.015 0 .031.004.045l.966-.375c-.004-.011-.016-.019-.017-.029h-.002c-.06-.052-.095-.116-.084-.196.012-.093.079-.162.17-.208a.752.752 0 0 1 .493-.043.469.469 0 0 1 .223.129c.003.013 0 .029.003.042l.966-.376c-.004-.009-.012-.019-.017-.027a.216.216 0 0 1-.085-.196c.012-.092.079-.162.17-.208a.745.745 0 0 1 .495-.044c.098.026.17.073.22.126l.001.004c.004.012.001.027.004.04l.964-.374c-.005-.011-.011-.017-.013-.029l-.002.002c-.061-.052-.095-.119-.085-.196.013-.093.08-.162.17-.208a.747.747 0 0 1 .494-.044.446.446 0 0 1 .221.128c.005.012.001.026.005.04l.963-.373c-.004-.01-.012-.017-.016-.026h-.002a.215.215 0 0 1-.081-.198c.012-.092.079-.161.17-.205a.738.738 0 0 1 .493-.044.434.434 0 0 1 .221.128c.004.01.001.026.004.038l.488-.189v.001l.002-.001L15.279.073.866 5.579z"
            id="j"/>
        <linearGradient id="k" x1="40.792%" x2="59.134%" y1="66.894%" y2="33.082%">
            <stop offset="0%" stop-color="#414142"/>
            <stop offset="100%" stop-color="#BBBDBF"/>
        </linearGradient>
        <path
            d="M2.287 18.675l1.758-.646v1.649l-1.758.647v-1.65zm0-2.829l1.758-.647v1.652l-1.758.646v-1.651zm0-2.829l1.758-.646v1.649l-1.758.647v-1.65zm0-2.829l1.758-.646v1.65l-1.758.645v-1.649zm0-2.831l1.758-.645v1.651l-1.758.645V7.357zM13.35 1.049L2.437 5.154C1.46 5.523.821 6.412.825 7.401l.042 15.178 14.413-5.507V2.275c0-.758-.662-1.322-1.404-1.322-.174 0-.352.031-.526.096z"
            id="m"/>
        <linearGradient id="n" x1="30.473%" x2="68.789%" y1="82.883%" y2="18.385%">
            <stop offset="0%" stop-color="#414142"/>
            <stop offset="100%" stop-color="#BBBDBF"/>
        </linearGradient>
        <path
            d="M13.908 1.032a.432.432 0 0 1-.045.287c-.162.313-.514.331-.686.132a.305.305 0 0 1-.057-.112l-.965.375a.42.42 0 0 1-.047.284c-.161.314-.513.329-.685.132a.3.3 0 0 1-.058-.11l-.965.375a.452.452 0 0 1-.046.284c-.162.31-.512.328-.685.131a.283.283 0 0 1-.057-.11l-.967.376a.42.42 0 0 1-.046.282c-.161.312-.514.328-.685.132-.029-.031-.042-.071-.056-.109l-.966.375a.44.44 0 0 1-.046.282c-.163.311-.515.328-.687.131a.291.291 0 0 1-.055-.108l-.966.376a.436.436 0 0 1-.047.279c-.162.312-.512.328-.686.13-.028-.031-.041-.067-.056-.104l-.967.375a.42.42 0 0 1-.045.279c-.162.312-.514.328-.686.13-.028-.03-.041-.067-.055-.104l-.967.375a.442.442 0 0 1-.045.277c-.163.312-.515.329-.688.13a.33.33 0 0 1-.053-.102l-.571.221H.268L.26 20.945c0 .861.932 1.448 1.78 1.121l1.576-.604c.526-.203.881-.669.913-1.201.012-.185.032-.372.067-.562.396-2.258 2.204-4.09 4.034-4.09 1.228 0 2.153.828 2.508 2.054.126.431.625.665 1.065.494l1.104-.423c.654-.253 1.081-.848 1.081-1.511V.843l-.48.189z"
            id="p"/>
        <linearGradient id="q" x1="31.491%" x2="69.703%" y1="81.332%" y2="17.094%">
            <stop offset="0%" stop-color="#414142"/>
            <stop offset="100%" stop-color="#BBBDBF"/>
        </linearGradient>
    </defs>
    <g fill="none" fill-rule="evenodd">
        <g transform="translate(151 23)">
            <mask fill="#fff" id="c">
                <use xlink:href="#a"/>
            </mask>
            <path d="M-4.481 8.721L7.525-12.073 33.797 3.094 21.791 23.887z" fill="url(#b)" mask="url(#c)"/>
        </g>
        <g transform="translate(151 7)">
            <mask fill="#fff" id="f">
                <use xlink:href="#d"/>
            </mask>
            <path d="M-9.021 16.382L3.96-6.099 24.169 5.568 11.19 28.049z" fill="url(#e)" mask="url(#f)"/>
        </g>
        <g transform="translate(165 29)">
            <mask fill="#fff" id="i">
                <use xlink:href="#g"/>
            </mask>
            <path d="M-8.539 16.214L4.326-6.067 24.254 5.44 11.39 27.721z" fill="url(#h)" mask="url(#i)"/>
        </g>
        <g transform="translate(167 17)">
            <mask fill="#fff" id="l">
                <use xlink:href="#j"/>
            </mask>
            <path d="M-4.005 8.511L8.002-12.283 34.271 2.885 22.267 23.679z" fill="url(#k)" mask="url(#l)"/>
        </g>
        <g transform="translate(167)">
            <mask fill="#fff" id="o">
                <use xlink:href="#m"/>
            </mask>
            <path d="M-8.544 17.172L4.435-5.308 24.643 6.36l-12.98 22.48z" fill="url(#n)" mask="url(#o)"/>
        </g>
        <g transform="translate(182 22)">
            <mask fill="#fff" id="r">
                <use xlink:href="#p"/>
            </mask>
            <path d="M-9.062 17.008L3.801-5.273 23.728 6.232 10.864 28.511z" fill="url(#q)" mask="url(#r)"/>
        </g>
        <g fill="#221F1F">
            <path
                d="M104.233 30.896a2.321 2.321 0 0 0 2.309-2.331 2.32 2.32 0 0 0-2.309-2.33 2.319 2.319 0 0 0-2.309 2.33 2.32 2.32 0 0 0 2.309 2.331M68.568 30.237a2.321 2.321 0 0 0 2.309-2.331c0-1.288-1.034-2.333-2.309-2.333-1.275 0-2.308 1.045-2.308 2.333 0 1.287 1.033 2.331 2.308 2.331M63.264 30.237c1.274 0 2.308-1.044 2.308-2.331 0-1.288-1.034-2.333-2.308-2.333-1.275 0-2.309 1.045-2.309 2.333a2.32 2.32 0 0 0 2.309 2.331M19.953 30.102c1.275 0 2.309-1.045 2.309-2.331a2.32 2.32 0 0 0-2.309-2.331 2.32 2.32 0 0 0-2.309 2.331c0 1.286 1.034 2.331 2.309 2.331M14.648 30.102c1.274 0 2.308-1.045 2.308-2.331a2.319 2.319 0 0 0-2.308-2.331 2.32 2.32 0 0 0-2.309 2.331c0 1.286 1.034 2.331 2.309 2.331M114.401 53.374c-1.274 0-2.309 1.044-2.309 2.332a2.32 2.32 0 0 0 2.309 2.33 2.32 2.32 0 0 0 2.31-2.33 2.32 2.32 0 0 0-2.31-2.332M109.097 53.374c-1.273 0-2.309 1.044-2.309 2.332a2.32 2.32 0 0 0 2.309 2.33 2.32 2.32 0 0 0 2.309-2.33c-.001-1.288-1.035-2.332-2.309-2.332M55.971 53.374c-1.274 0-2.308 1.044-2.308 2.332a2.32 2.32 0 0 0 2.308 2.33 2.32 2.32 0 0 0 2.309-2.33c0-1.288-1.034-2.332-2.309-2.332M50.667 53.374a2.32 2.32 0 0 0-2.309 2.332 2.319 2.319 0 0 0 2.309 2.33 2.319 2.319 0 0 0 2.308-2.33c0-1.288-1.033-2.332-2.308-2.332"/>
            <path
                d="M149.779 33.383a1.959 1.959 0 0 0-1.961 1.954l-.009 6.68c0 2.101-1.825 3.935-3.914 3.823-9.746-.522-18.728-5.381-24.689-12.441l-2.366-.003a1.957 1.957 0 0 0-1.96 1.954l-.012 6.728a3.848 3.848 0 0 1-3.843 3.844 3.848 3.848 0 0 1-3.845-3.839l.01-6.727a1.955 1.955 0 0 0-1.954-1.959l-2.366-.004-.002 1.16a8.25 8.25 0 0 0-3.995-1.028c-4.58 0-8.306 3.728-8.306 8.308 0 .063.007.123.007.185a3.845 3.845 0 0 1-4.104 3.79c-2.042-.137-3.582-1.926-3.582-3.973V22.836c0-.628-.507-1.135-1.134-1.135h-2.053c-.627 0-1.136.507-1.136 1.135v18.918c0 4.568 3.739 8.458 8.308 8.385a8.14 8.14 0 0 0 5.9-2.689 8.27 8.27 0 0 0 6.1 2.689 8.28 8.28 0 0 0 6.061-2.643 8.138 8.138 0 0 0 6.092 2.747c4.504 0 8.167-3.664 8.167-8.162l.005-2.598c8.197 7.311 21.63 12.019 26.974 10.396v-.007c3.433-.966 5.96-4.117 5.96-7.854l.015-8.633-2.368-.002zM98.873 45.815a3.987 3.987 0 0 1-3.974-3.798l.002-.046h-.004c-.002-.047-.007-.093-.007-.14a3.988 3.988 0 0 1 3.982-3.984 3.988 3.988 0 0 1 3.984 3.984 3.987 3.987 0 0 1-3.983 3.984zM69.181 35.337l-.011 6.695a3.85 3.85 0 0 1-3.843 3.846 3.85 3.85 0 0 1-3.844-3.843l.011-6.689a1.953 1.953 0 0 0-1.955-1.959l-2.365-.004-.015 8.649c0 2.206-1.805 4.048-4.076 3.896-1.894-.127-2.85-1.346-3.378-2.51-.215-.473-.286-1.361-.407-2.107-.15-.919-.573-2.051-1.666-3.487l-4.683-5.57 7.632-7.189a1.072 1.072 0 0 0 .046-1.515l-1.425-1.512a1.07 1.07 0 0 0-1.514-.045l-9.115 8.585.017.018a2.107 2.107 0 0 0-.142 2.887c4.975 6.06 6.665 6.946 6.679 8.646-.004 1.967-1.458 3.479-3.319 3.717a3.848 3.848 0 0 1-4.348-3.81l.011-6.673a1.958 1.958 0 0 0-1.954-1.96l-2.367-.004v.004l-.002-.004c-5.961 7.062-14.941 11.919-24.689 12.44-2.088.113-3.913-1.722-3.913-3.822l-.011-6.729a1.96 1.96 0 0 0-1.96-1.954l-2.367.003.014 8.684c0 3.736 2.527 6.889 5.961 7.854v.007c5.34 1.621 18.757-3.081 26.955-10.383l-.004 2.534c0 4.504 3.498 8.056 8.171 8.158 2.36.051 4.539-1.063 5.935-2.642 1.613 1.834 3.828 2.658 6.213 2.651 2.321-.009 4.404-1.056 5.867-2.649a8.143 8.143 0 0 0 6.006 2.651c4.503 0 8.167-3.665 8.167-8.167l.015-8.648-2.366-.004a1.958 1.958 0 0 0-1.961 1.954"/>
        </g>
    </g>
</svg>
