<?xml version="1.0" encoding="UTF-8" standalone="no"?>
<!DOCTYPE svg PUBLIC "-//W3C//DTD SVG 20010904//EN" "http://www.w3.org/TR/2001/REC-SVG-20010904/DTD/svg10.dtd">
<svg height="16.000000pt" preserveAspectRatio="xMidYMid meet" version="1.0" viewBox="0 0 16.000000 16.000000" width="16.000000pt" xmlns="http://www.w3.org/2000/svg">
    <metadata>
        Created by potrace 1.11, written by Peter Selinger 2001-2013
    </metadata>
    <g fill="#000000" stroke="none" transform="translate(0.000000,16.000000) scale(0.003125,-0.003125)">
        <path
            d="M2365 5114 c-108 -9 -326 -46 -435 -73 -172 -44 -335 -105 -509 -192 -503 -249 -900 -646 -1150 -1150 -126 -252 -198 -480 -243 -764 -32 -201 -32 -549 0 -750 45 -284 117 -512 243 -764 249 -503 646 -900 1150 -1150 252 -126 480 -198 764 -243 201 -32 549 -32 750 0 284 45 512 117 764 243 504 250 901 647 1150 1150 126 252 198 480 243 764 32 201 32 549 0 750 -45 284 -117 512 -243 764 -249 503 -646 900 -1150 1150 -357 178 -685 258 -1084 265 -110 2 -222 2 -250 0z m807 -663 l33 -29 3 -605 2 -604 548 -225 547 -226 3 -623 c2 -720 9 -669 -95 -715 -111 -49 -129 -45 -168 41 -55 122 -176 162 -300 98 -49 -25 -126 -105 -153 -159 -25 -50 -52 -140 -52 -175 0 -46 -43 -84 -131 -118 -102 -39 -132 -39 -170 -2 l-29 29 0 594 0 594 -562 226 -563 227 -3 621 c-2 691 -5 663 64 718 48 38 896 360 951 361 34 1 50 -5 75 -28z m-1304 -474 c52 -25 52 -21 52 -660 l0 -593 548 -226 547 -225 0 -636 0 -635 -24 -26 c-13 -14 -55 -37 -92 -52 -86 -34 -110 -26 -140 43 -39 92 -99 135 -189 135 -73 0 -139 -33 -203 -101 -58 -62 -93 -134 -111 -231 -18 -90 -35 -109 -141 -150 -97 -38 -141 -36 -175 7 -20 25 -20 37 -20 618 l0 593 -562 225 -563 225 -3 621 c-2 604 -2 623 18 661 11 21 34 50 52 63 27 20 623 253 876 343 63 22 87 22 130 1z"/>
        <path d="M2255 4005 l-60 -22 -3 -66 -3 -66 53 18 c94 33 88 27 88 97 0 35 -3 63 -7 63 -5 -1 -35 -11 -68 -24z"/>
        <path d="M2258 3782 l-68 -25 0 -63 c0 -35 2 -64 5 -64 10 0 121 43 128 50 4 4 7 34 5 67 l-3 60 -67 -25z"/>
        <path d="M2250 3556 l-55 -22 -3 -62 c-2 -34 1 -62 5 -62 4 0 36 10 71 22 l62 22 0 63 c0 72 0 72 -80 39z"/>
        <path d="M2255 3335 l-60 -23 -3 -66 -3 -66 67 25 c36 14 68 25 70 25 2 0 4 29 4 65 0 36 -3 65 -7 64 -5 0 -35 -11 -68 -24z"/>
        <path d="M2258 3113 l-68 -25 0 -64 c0 -35 2 -64 4 -64 9 0 122 44 129 50 4 4 7 34 5 67 l-3 61 -67 -25z"/>
        <path d="M4213 2744 c-8 -20 19 -47 39 -39 22 9 29 42 11 49 -26 10 -43 7 -50 -10z"/>
        <path d="M4088 2702 c-19 -4 -22 -11 -12 -36 11 -29 64 -12 64 20 0 13 -27 22 -52 16z"/>
        <path d="M3936 2641 c-12 -20 6 -42 33 -39 37 4 37 42 -1 46 -14 2 -29 -1 -32 -7z"/>
        <path d="M3802 2587 c-18 -22 11 -56 35 -41 25 15 23 48 -3 52 -11 2 -26 -3 -32 -11z"/>
        <path d="M3662 2518 c4 -30 43 -36 57 -10 13 24 5 32 -31 32 -25 0 -29 -4 -26 -22z"/>
        <path d="M3523 2474 c-7 -20 22 -45 42 -38 16 7 27 32 19 45 -9 15 -54 10 -61 -7z"/>
        <path d="M3392 2427 c-18 -22 11 -56 35 -41 25 15 23 48 -3 52 -11 2 -26 -3 -32 -11z"/>
        <path d="M3252 2358 c2 -17 10 -23 28 -23 18 0 26 6 28 23 3 19 -1 22 -28 22 -27 0 -31 -3 -28 -22z"/>
        <path d="M965 3515 l-60 -23 -3 -65 -3 -66 53 18 c94 33 88 27 88 97 0 35 -3 64 -7 63 -5 0 -35 -11 -68 -24z"/>
        <path d="M968 3292 l-68 -25 0 -63 c0 -35 2 -64 5 -64 10 0 121 43 128 50 4 4 7 34 5 67 l-3 60 -67 -25z"/>
        <path d="M958 3067 l-58 -22 0 -62 c0 -35 3 -63 8 -63 4 0 35 10 70 22 l62 23 0 62 c0 72 1 71 -82 40z"/>
        <path d="M965 2846 l-60 -23 -3 -67 -3 -66 67 25 c36 14 68 25 70 25 2 0 4 29 4 65 0 36 -3 65 -7 64 -5 0 -35 -10 -68 -23z"/>
        <path d="M968 2623 l-68 -25 0 -64 c0 -35 2 -64 4 -64 9 0 122 44 129 50 4 4 7 34 5 67 l-3 61 -67 -25z"/>
        <path d="M2923 2254 c-8 -20 19 -46 39 -39 22 9 32 37 16 47 -21 13 -48 9 -55 -8z"/>
        <path d="M2798 2212 c-22 -4 -23 -25 -2 -43 11 -9 20 -10 32 -2 38 24 17 55 -30 45z"/>
        <path d="M2646 2151 c-4 -5 -3 -17 0 -26 10 -25 58 -16 62 13 3 19 -1 22 -27 22 -16 0 -32 -4 -35 -9z"/>
        <path d="M2511 2096 c-9 -11 -8 -18 4 -30 9 -9 20 -16 24 -16 15 0 33 30 27 45 -7 19 -40 20 -55 1z"/>
        <path d="M2387 2052 c-26 -6 -18 -46 10 -50 30 -4 51 33 26 46 -10 5 -26 7 -36 4z"/>
        <path d="M2236 1991 c-8 -13 3 -38 19 -45 17 -6 48 21 42 38 -5 14 -53 20 -61 7z"/>
        <path d="M2102 1937 c-18 -22 11 -56 35 -41 25 15 23 48 -3 52 -11 2 -26 -3 -32 -11z"/>
        <path d="M1962 1868 c2 -17 10 -23 28 -23 18 0 26 6 28 23 3 19 -1 22 -28 22 -27 0 -31 -3 -28 -22z"/>
    </g>
</svg>
